<svg xmlns="http://www.w3.org/2000/svg" xmlns:xlink="http://www.w3.org/1999/xlink" width="500" zoomAndPan="magnify" viewBox="0 0 375 374.999991" height="500" preserveAspectRatio="xMidYMid meet" version="1.0"><defs><clipPath id="0ae04d4a02"><path d="M 213.863281 5 L 366.28125 5 L 366.28125 345.867188 L 213.863281 345.867188 Z M 213.863281 5 " clip-rule="nonzero"/></clipPath><clipPath id="e1e9cf63d3"><rect x="0" width="367" y="0" height="347"/></clipPath></defs><g transform="matrix(1, 0, 0, 1, 5, 21)"><g clip-path="url(#e1e9cf63d3)"><g clip-path="url(#0ae04d4a02)"><path fill="#ad46ff" d="M 347.050781 150.523438 C 346.082031 150.527344 345.113281 150.601562 344.152344 150.753906 C 343.195312 150.902344 342.25 151.125 341.324219 151.421875 C 340.398438 151.714844 339.5 152.078125 338.628906 152.511719 C 337.757812 152.941406 336.925781 153.4375 336.132812 153.996094 C 335.335938 154.554688 334.589844 155.171875 333.890625 155.84375 C 333.1875 156.519531 332.542969 157.242188 331.953125 158.011719 C 331.363281 158.785156 330.832031 159.597656 330.367188 160.449219 C 329.902344 161.304688 329.503906 162.1875 329.171875 163.101562 L 252.929688 163.101562 L 252.929688 136.082031 L 285.089844 136.082031 C 287.050781 136.085938 288.984375 135.867188 290.894531 135.421875 C 292.800781 134.976562 294.632812 134.316406 296.386719 133.445312 C 298.144531 132.574219 299.773438 131.507812 301.28125 130.257812 C 302.789062 129.003906 304.128906 127.59375 305.308594 126.027344 L 314.46875 114.039062 C 315.097656 114.304688 315.734375 114.535156 316.382812 114.730469 C 317.035156 114.925781 317.691406 115.085938 318.359375 115.210938 C 319.027344 115.335938 319.699219 115.425781 320.375 115.480469 C 321.054688 115.535156 321.730469 115.550781 322.410156 115.535156 C 323.089844 115.515625 323.765625 115.460938 324.4375 115.371094 C 325.109375 115.28125 325.777344 115.152344 326.4375 114.992188 C 327.097656 114.832031 327.746094 114.632812 328.382812 114.402344 C 329.023438 114.171875 329.648438 113.910156 330.257812 113.613281 C 330.867188 113.3125 331.460938 112.984375 332.035156 112.625 C 332.613281 112.265625 333.167969 111.875 333.699219 111.453125 C 334.234375 111.035156 334.742188 110.585938 335.230469 110.113281 C 335.714844 109.640625 336.175781 109.140625 336.609375 108.617188 C 337.042969 108.09375 337.445312 107.550781 337.820312 106.984375 C 338.195312 106.417969 338.539062 105.832031 338.851562 105.230469 C 339.164062 104.628906 339.445312 104.011719 339.691406 103.378906 C 339.9375 102.746094 340.148438 102.101562 340.328125 101.445312 C 340.507812 100.789062 340.648438 100.128906 340.757812 99.457031 C 340.863281 98.785156 340.933594 98.113281 340.96875 97.433594 C 341.003906 96.757812 341.003906 96.078125 340.96875 95.398438 C 340.929688 94.722656 340.859375 94.046875 340.75 93.378906 C 340.640625 92.707031 340.496094 92.042969 340.316406 91.390625 C 340.140625 90.734375 339.925781 90.089844 339.675781 89.460938 C 339.429688 88.828125 339.148438 88.210938 338.835938 87.609375 C 338.519531 87.003906 338.175781 86.421875 337.800781 85.855469 C 337.425781 85.289062 337.019531 84.746094 336.585938 84.226562 C 336.152344 83.703125 335.691406 83.203125 335.203125 82.730469 C 334.714844 82.257812 334.207031 81.8125 333.671875 81.394531 C 333.136719 80.976562 332.582031 80.585938 332.003906 80.226562 C 331.429688 79.867188 330.835938 79.539062 330.222656 79.242188 C 329.613281 78.945312 328.988281 78.683594 328.347656 78.453125 C 327.710938 78.226562 327.058594 78.03125 326.402344 77.871094 C 325.742188 77.710938 325.074219 77.585938 324.402344 77.496094 C 323.726562 77.40625 323.050781 77.351562 322.375 77.335938 C 321.695312 77.320312 321.015625 77.339844 320.339844 77.394531 C 319.664062 77.449219 318.992188 77.539062 318.324219 77.667969 C 317.65625 77.792969 317 77.953125 316.347656 78.152344 C 315.699219 78.347656 315.0625 78.578125 314.4375 78.84375 C 313.8125 79.109375 313.203125 79.40625 312.609375 79.738281 C 312.015625 80.066406 311.441406 80.425781 310.886719 80.820312 C 310.332031 81.210938 309.796875 81.628906 309.289062 82.078125 C 308.777344 82.523438 308.292969 83 307.832031 83.5 C 307.371094 84 306.941406 84.519531 306.535156 85.066406 C 306.132812 85.613281 305.757812 86.179688 305.414062 86.765625 C 305.070312 87.347656 304.757812 87.953125 304.480469 88.570312 C 304.199219 89.1875 303.953125 89.820312 303.742188 90.464844 C 303.53125 91.109375 303.351562 91.765625 303.210938 92.429688 C 303.066406 93.09375 302.960938 93.761719 302.890625 94.4375 C 302.820312 95.113281 302.785156 95.789062 302.785156 96.46875 C 302.804688 99.503906 303.515625 102.363281 304.917969 105.050781 L 294.929688 118.125 C 294.359375 118.886719 293.703125 119.574219 292.972656 120.183594 C 292.238281 120.796875 291.445312 121.316406 290.589844 121.742188 C 289.738281 122.167969 288.847656 122.492188 287.917969 122.710938 C 286.988281 122.925781 286.046875 123.035156 285.089844 123.035156 L 252.929688 123.035156 L 252.929688 113.015625 C 252.914062 112.3125 252.863281 111.609375 252.773438 110.914062 C 252.683594 110.214844 252.558594 109.523438 252.394531 108.839844 C 252.230469 108.15625 252.03125 107.484375 251.796875 106.820312 C 251.5625 106.15625 251.292969 105.507812 250.988281 104.875 C 250.683594 104.242188 250.347656 103.625 249.976562 103.027344 C 249.605469 102.429688 249.207031 101.851562 248.773438 101.296875 C 248.34375 100.742188 247.882812 100.210938 247.394531 99.707031 C 246.90625 99.199219 246.394531 98.722656 245.855469 98.269531 C 245.316406 97.820312 244.753906 97.398438 244.167969 97.007812 C 243.585938 96.617188 242.980469 96.257812 242.359375 95.929688 C 241.734375 95.601562 241.097656 95.308594 240.445312 95.050781 C 239.789062 94.792969 239.125 94.570312 238.445312 94.382812 C 237.769531 94.195312 237.082031 94.042969 236.390625 93.929688 C 235.695312 93.816406 234.996094 93.738281 234.296875 93.699219 C 233.59375 93.660156 232.890625 93.65625 232.1875 93.691406 C 231.488281 93.726562 230.789062 93.800781 230.09375 93.910156 L 230.09375 61.742188 C 230.09375 60.789062 230.203125 59.84375 230.421875 58.914062 C 230.640625 57.984375 230.964844 57.089844 231.390625 56.238281 C 231.816406 55.382812 232.335938 54.585938 232.949219 53.855469 C 233.5625 53.121094 234.25 52.46875 235.015625 51.894531 L 248.082031 41.914062 C 248.746094 42.246094 249.425781 42.539062 250.125 42.789062 C 250.820312 43.042969 251.53125 43.253906 252.253906 43.425781 C 252.976562 43.597656 253.703125 43.722656 254.441406 43.808594 C 255.179688 43.894531 255.917969 43.9375 256.660156 43.9375 C 257.402344 43.9375 258.140625 43.890625 258.878906 43.804688 C 259.617188 43.71875 260.34375 43.589844 261.066406 43.417969 C 261.789062 43.246094 262.5 43.03125 263.195312 42.777344 C 263.894531 42.523438 264.574219 42.230469 265.234375 41.898438 C 265.898438 41.5625 266.539062 41.191406 267.160156 40.785156 C 267.78125 40.375 268.375 39.933594 268.941406 39.457031 C 269.507812 38.976562 270.046875 38.46875 270.558594 37.929688 C 271.066406 37.390625 271.542969 36.820312 271.984375 36.226562 C 272.425781 35.632812 272.835938 35.011719 273.203125 34.367188 C 273.574219 33.726562 273.90625 33.0625 274.203125 32.382812 C 274.496094 31.703125 274.746094 31.003906 274.960938 30.292969 C 275.171875 29.582031 275.34375 28.863281 275.472656 28.132812 C 275.601562 27.402344 275.6875 26.664062 275.730469 25.925781 C 275.773438 25.183594 275.773438 24.441406 275.730469 23.703125 C 275.6875 22.960938 275.597656 22.226562 275.46875 21.496094 C 275.339844 20.761719 275.171875 20.042969 274.957031 19.332031 C 274.746094 18.621094 274.492188 17.925781 274.195312 17.242188 C 273.902344 16.5625 273.570312 15.902344 273.199219 15.257812 C 272.828125 14.613281 272.421875 13.996094 271.976562 13.402344 C 271.535156 12.804688 271.058594 12.238281 270.550781 11.699219 C 270.039062 11.160156 269.5 10.652344 268.933594 10.171875 C 268.363281 9.695312 267.769531 9.253906 267.152344 8.847656 C 266.53125 8.4375 265.890625 8.066406 265.226562 7.734375 C 264.5625 7.402344 263.882812 7.109375 263.1875 6.855469 C 262.488281 6.601562 261.777344 6.386719 261.058594 6.214844 C 260.335938 6.042969 259.605469 5.914062 258.867188 5.828125 C 258.132812 5.742188 257.390625 5.699219 256.648438 5.699219 C 255.90625 5.699219 255.167969 5.742188 254.429688 5.828125 C 253.695312 5.914062 252.964844 6.042969 252.242188 6.210938 C 251.519531 6.382812 250.8125 6.597656 250.113281 6.847656 C 249.414062 7.101562 248.734375 7.394531 248.074219 7.726562 C 247.410156 8.0625 246.765625 8.429688 246.148438 8.839844 C 245.527344 9.246094 244.933594 9.6875 244.363281 10.164062 C 243.792969 10.640625 243.253906 11.148438 242.746094 11.6875 C 242.238281 12.226562 241.761719 12.792969 241.316406 13.390625 C 240.871094 13.984375 240.464844 14.601562 240.09375 15.246094 C 239.722656 15.886719 239.390625 16.550781 239.09375 17.230469 C 238.800781 17.910156 238.546875 18.609375 238.332031 19.316406 C 238.121094 20.027344 237.949219 20.75 237.816406 21.480469 C 237.6875 22.210938 237.601562 22.945312 237.558594 23.6875 C 237.515625 24.429688 237.511719 25.167969 237.554688 25.910156 C 237.597656 26.652344 237.683594 27.386719 237.8125 28.117188 C 237.941406 28.847656 238.109375 29.570312 238.320312 30.28125 C 238.535156 30.992188 238.785156 31.6875 239.078125 32.371094 C 229.058594 39.921875 216.449219 47.476562 217.046875 61.742188 L 217.046875 93.910156 L 190.023438 93.910156 L 190.023438 71.101562 C 190.023438 70.671875 189.980469 70.25 189.898438 69.828125 C 189.8125 69.410156 189.691406 69 189.527344 68.605469 C 189.363281 68.210938 189.160156 67.832031 188.921875 67.476562 C 188.683594 67.121094 188.414062 66.792969 188.113281 66.488281 C 187.808594 66.1875 187.480469 65.914062 187.125 65.675781 C 186.765625 65.4375 186.390625 65.238281 185.996094 65.074219 C 185.597656 64.910156 185.191406 64.785156 184.773438 64.703125 C 184.351562 64.621094 183.925781 64.578125 183.5 64.578125 C 183.070312 64.578125 182.644531 64.621094 182.226562 64.703125 C 181.804688 64.785156 181.398438 64.910156 181.003906 65.074219 C 180.605469 65.238281 180.230469 65.4375 179.875 65.675781 C 179.519531 65.914062 179.1875 66.1875 178.886719 66.488281 C 178.582031 66.792969 178.3125 67.121094 178.074219 67.476562 C 177.835938 67.832031 177.636719 68.210938 177.472656 68.605469 C 177.308594 69 177.183594 69.410156 177.101562 69.828125 C 177.015625 70.25 176.976562 70.671875 176.976562 71.101562 L 176.976562 93.910156 L 149.949219 93.910156 L 149.949219 61.742188 C 149.957031 59.785156 149.738281 57.847656 149.292969 55.941406 C 148.847656 54.03125 148.1875 52.199219 147.316406 50.445312 C 146.441406 48.691406 145.378906 47.058594 144.128906 45.550781 C 142.875 44.042969 141.46875 42.703125 139.902344 41.523438 L 127.914062 32.367188 C 128.207031 31.683594 128.460938 30.988281 128.671875 30.277344 C 128.882812 29.566406 129.050781 28.847656 129.179688 28.113281 C 129.308594 27.382812 129.390625 26.648438 129.433594 25.90625 C 129.476562 25.167969 129.472656 24.425781 129.429688 23.6875 C 129.386719 22.945312 129.296875 22.210938 129.167969 21.480469 C 129.039062 20.75 128.867188 20.027344 128.652344 19.320312 C 128.4375 18.609375 128.183594 17.914062 127.886719 17.230469 C 127.59375 16.550781 127.261719 15.890625 126.886719 15.25 C 126.515625 14.605469 126.109375 13.988281 125.664062 13.394531 C 125.21875 12.800781 124.742188 12.234375 124.234375 11.695312 C 123.722656 11.15625 123.183594 10.648438 122.617188 10.171875 C 122.046875 9.695312 121.453125 9.253906 120.832031 8.847656 C 120.210938 8.441406 119.570312 8.070312 118.90625 7.738281 C 118.242188 7.40625 117.5625 7.113281 116.863281 6.863281 C 116.167969 6.609375 115.457031 6.398438 114.734375 6.226562 C 114.011719 6.058594 113.285156 5.929688 112.546875 5.84375 C 111.808594 5.757812 111.070312 5.714844 110.328125 5.71875 C 109.585938 5.71875 108.847656 5.761719 108.109375 5.847656 C 107.375 5.9375 106.644531 6.066406 105.921875 6.238281 C 105.203125 6.410156 104.492188 6.621094 103.796875 6.875 C 103.097656 7.132812 102.417969 7.425781 101.753906 7.757812 C 101.09375 8.09375 100.453125 8.464844 99.832031 8.871094 C 99.214844 9.28125 98.621094 9.722656 98.050781 10.199219 C 97.484375 10.675781 96.945312 11.1875 96.4375 11.726562 C 95.929688 12.265625 95.453125 12.832031 95.011719 13.429688 C 94.566406 14.023438 94.160156 14.644531 93.789062 15.285156 C 93.421875 15.929688 93.089844 16.589844 92.792969 17.273438 C 92.5 17.953125 92.25 18.648438 92.035156 19.359375 C 91.824219 20.070312 91.652344 20.792969 91.523438 21.523438 C 91.394531 22.253906 91.3125 22.988281 91.269531 23.730469 C 91.226562 24.46875 91.226562 25.210938 91.269531 25.949219 C 91.3125 26.691406 91.398438 27.425781 91.527344 28.15625 C 91.65625 28.886719 91.828125 29.609375 92.042969 30.320312 C 92.253906 31.03125 92.507812 31.726562 92.800781 32.40625 C 93.09375 33.089844 93.429688 33.75 93.800781 34.390625 C 94.171875 35.035156 94.578125 35.652344 95.019531 36.25 C 95.464844 36.84375 95.941406 37.410156 96.449219 37.949219 C 96.957031 38.488281 97.496094 38.996094 98.066406 39.476562 C 98.632812 39.953125 99.226562 40.394531 99.847656 40.800781 C 100.46875 41.207031 101.109375 41.578125 101.773438 41.914062 C 102.433594 42.246094 103.113281 42.539062 103.8125 42.792969 C 104.507812 43.046875 105.21875 43.257812 105.941406 43.429688 C 106.660156 43.601562 107.390625 43.730469 108.128906 43.816406 C 108.863281 43.902344 109.605469 43.945312 110.347656 43.945312 C 111.089844 43.945312 111.828125 43.902344 112.5625 43.816406 C 113.300781 43.730469 114.03125 43.601562 114.753906 43.429688 C 115.472656 43.261719 116.183594 43.046875 116.882812 42.792969 C 117.578125 42.542969 118.257812 42.25 118.921875 41.914062 L 131.992188 51.902344 C 132.753906 52.472656 133.441406 53.128906 134.054688 53.859375 C 134.664062 54.59375 135.183594 55.386719 135.609375 56.242188 C 136.035156 57.097656 136.359375 57.988281 136.578125 58.917969 C 136.796875 59.847656 136.90625 60.789062 136.902344 61.742188 L 136.902344 93.910156 C 136.210938 93.796875 135.511719 93.726562 134.808594 93.691406 C 134.105469 93.65625 133.40625 93.660156 132.703125 93.699219 C 132 93.738281 131.300781 93.816406 130.609375 93.929688 C 129.914062 94.042969 129.230469 94.195312 128.550781 94.382812 C 127.875 94.570312 127.207031 94.792969 126.554688 95.050781 C 125.898438 95.308594 125.261719 95.601562 124.640625 95.929688 C 124.015625 96.257812 123.414062 96.617188 122.828125 97.007812 C 122.246094 97.398438 121.683594 97.820312 121.144531 98.269531 C 120.605469 98.722656 120.089844 99.199219 119.601562 99.707031 C 119.113281 100.210938 118.652344 100.742188 118.222656 101.296875 C 117.792969 101.855469 117.390625 102.429688 117.019531 103.027344 C 116.652344 103.625 116.3125 104.242188 116.007812 104.875 C 115.703125 105.511719 115.433594 106.160156 115.199219 106.820312 C 114.964844 107.484375 114.765625 108.15625 114.601562 108.839844 C 114.441406 109.523438 114.3125 110.214844 114.226562 110.914062 C 114.136719 111.609375 114.082031 112.3125 114.070312 113.015625 L 114.070312 123.035156 L 81.90625 123.035156 C 80.949219 123.035156 80.007812 122.925781 79.074219 122.707031 C 78.144531 122.488281 77.25 122.164062 76.398438 121.734375 C 75.542969 121.308594 74.746094 120.785156 74.011719 120.171875 C 73.28125 119.558594 72.625 118.871094 72.054688 118.105469 L 62.074219 105.046875 C 62.402344 104.386719 62.691406 103.710938 62.941406 103.015625 C 63.191406 102.324219 63.402344 101.621094 63.570312 100.902344 C 63.738281 100.183594 63.863281 99.460938 63.945312 98.726562 C 64.03125 97.996094 64.070312 97.261719 64.070312 96.527344 C 64.066406 95.789062 64.023438 95.054688 63.9375 94.324219 C 63.847656 93.59375 63.71875 92.867188 63.546875 92.152344 C 63.375 91.433594 63.164062 90.730469 62.910156 90.039062 C 62.65625 89.347656 62.363281 88.671875 62.03125 88.015625 C 61.699219 87.359375 61.332031 86.722656 60.925781 86.105469 C 60.519531 85.492188 60.078125 84.902344 59.605469 84.339844 C 59.132812 83.777344 58.625 83.242188 58.089844 82.738281 C 57.550781 82.230469 56.988281 81.761719 56.398438 81.320312 C 55.804688 80.882812 55.191406 80.480469 54.550781 80.109375 C 53.914062 79.742188 53.257812 79.414062 52.578125 79.125 C 51.902344 78.832031 51.210938 78.582031 50.503906 78.371094 C 49.800781 78.160156 49.082031 77.992188 48.359375 77.863281 C 47.632812 77.734375 46.902344 77.652344 46.167969 77.609375 C 45.429688 77.566406 44.695312 77.566406 43.960938 77.609375 C 43.226562 77.652344 42.496094 77.738281 41.769531 77.867188 C 41.042969 77.996094 40.328125 78.164062 39.621094 78.375 C 38.917969 78.589844 38.226562 78.839844 37.550781 79.132812 C 36.875 79.421875 36.214844 79.753906 35.578125 80.121094 C 34.941406 80.488281 34.324219 80.894531 33.734375 81.332031 C 33.144531 81.773438 32.578125 82.246094 32.042969 82.75 C 31.507812 83.257812 31.003906 83.789062 30.527344 84.355469 C 30.054688 84.917969 29.617188 85.507812 29.210938 86.125 C 28.804688 86.738281 28.4375 87.375 28.105469 88.035156 C 27.773438 88.691406 27.484375 89.367188 27.230469 90.058594 C 26.976562 90.75 26.765625 91.453125 26.59375 92.171875 C 26.425781 92.886719 26.296875 93.613281 26.210938 94.34375 C 26.125 95.074219 26.078125 95.808594 26.078125 96.546875 C 26.078125 97.28125 26.121094 98.015625 26.203125 98.75 C 26.289062 99.480469 26.414062 100.207031 26.582031 100.921875 C 26.75 101.640625 26.960938 102.34375 27.210938 103.035156 C 27.464844 103.730469 27.753906 104.40625 28.082031 105.0625 C 28.410156 105.722656 28.777344 106.359375 29.179688 106.976562 C 29.585938 107.59375 30.023438 108.183594 30.496094 108.75 C 30.96875 109.316406 31.46875 109.851562 32.003906 110.359375 C 32.539062 110.863281 33.101562 111.339844 33.691406 111.78125 C 34.28125 112.222656 34.894531 112.628906 35.53125 112.996094 C 36.167969 113.367188 36.824219 113.699219 37.5 113.992188 C 38.175781 114.285156 38.867188 114.539062 39.570312 114.753906 C 40.277344 114.96875 40.992188 115.140625 41.714844 115.269531 C 42.441406 115.398438 43.171875 115.488281 43.90625 115.53125 C 44.640625 115.578125 45.378906 115.582031 46.113281 115.539062 C 46.847656 115.5 47.578125 115.417969 48.304688 115.292969 C 49.03125 115.167969 49.746094 115 50.453125 114.789062 C 51.160156 114.582031 51.851562 114.332031 52.53125 114.042969 L 61.675781 126.007812 C 62.855469 127.578125 64.199219 128.988281 65.703125 130.246094 C 67.210938 131.5 68.84375 132.5625 70.601562 133.4375 C 72.355469 134.3125 74.1875 134.972656 76.097656 135.417969 C 78.007812 135.867188 79.945312 136.085938 81.90625 136.082031 L 114.066406 136.082031 L 114.066406 163.097656 L 37.824219 163.097656 C 37.574219 162.402344 37.28125 161.726562 36.945312 161.0625 C 36.613281 160.402344 36.246094 159.761719 35.839844 159.144531 C 35.429688 158.523438 34.988281 157.933594 34.511719 157.363281 C 34.039062 156.796875 33.53125 156.261719 32.992188 155.753906 C 32.453125 155.246094 31.886719 154.769531 31.292969 154.328125 C 30.699219 153.886719 30.082031 153.480469 29.441406 153.109375 C 28.796875 152.738281 28.136719 152.40625 27.457031 152.113281 C 26.777344 151.820312 26.082031 151.570312 25.375 151.355469 C 24.664062 151.144531 23.945312 150.972656 23.21875 150.84375 C 22.488281 150.71875 21.753906 150.632812 21.015625 150.589844 C 20.273438 150.546875 19.535156 150.546875 18.796875 150.589844 C 18.058594 150.632812 17.324219 150.71875 16.59375 150.847656 C 15.867188 150.976562 15.144531 151.144531 14.4375 151.359375 C 13.726562 151.570312 13.035156 151.824219 12.355469 152.117188 C 11.675781 152.410156 11.011719 152.742188 10.371094 153.113281 C 9.730469 153.480469 9.113281 153.886719 8.519531 154.332031 C 7.925781 154.773438 7.359375 155.25 6.820312 155.757812 C 6.28125 156.265625 5.777344 156.800781 5.300781 157.371094 C 4.824219 157.9375 4.382812 158.53125 3.976562 159.148438 C 3.570312 159.765625 3.199219 160.40625 2.867188 161.070312 C 2.535156 161.730469 2.242188 162.410156 1.988281 163.105469 C 1.738281 163.800781 1.523438 164.507812 1.355469 165.230469 C 1.183594 165.949219 1.054688 166.675781 0.96875 167.414062 C 0.882812 168.148438 0.839844 168.886719 0.839844 169.625 C 0.839844 170.367188 0.882812 171.105469 0.96875 171.839844 C 1.054688 172.574219 1.183594 173.304688 1.355469 174.023438 C 1.527344 174.742188 1.738281 175.453125 1.992188 176.148438 C 2.242188 176.84375 2.535156 177.523438 2.871094 178.183594 C 3.203125 178.84375 3.570312 179.484375 3.976562 180.105469 C 4.386719 180.722656 4.828125 181.316406 5.300781 181.882812 C 5.777344 182.449219 6.285156 182.988281 6.824219 183.496094 C 7.363281 184.003906 7.929688 184.476562 8.523438 184.921875 C 9.117188 185.363281 9.734375 185.769531 10.375 186.136719 C 11.015625 186.507812 11.675781 186.839844 12.355469 187.132812 C 13.035156 187.425781 13.730469 187.679688 14.441406 187.890625 C 15.148438 188.105469 15.871094 188.273438 16.597656 188.402344 C 17.328125 188.53125 18.0625 188.617188 18.800781 188.660156 C 19.539062 188.703125 20.277344 188.703125 21.019531 188.660156 C 21.757812 188.617188 22.492188 188.53125 23.21875 188.402344 C 23.949219 188.273438 24.667969 188.105469 25.378906 187.890625 C 26.085938 187.679688 26.78125 187.425781 27.460938 187.132812 C 28.140625 186.839844 28.800781 186.507812 29.441406 186.136719 C 30.085938 185.765625 30.703125 185.359375 31.296875 184.917969 C 31.890625 184.476562 32.457031 184 32.996094 183.492188 C 33.53125 182.984375 34.039062 182.449219 34.515625 181.882812 C 34.992188 181.3125 35.433594 180.722656 35.839844 180.101562 C 36.246094 179.484375 36.617188 178.84375 36.949219 178.183594 C 37.28125 177.519531 37.574219 176.839844 37.828125 176.144531 L 114.070312 176.148438 L 114.070312 203.171875 L 81.90625 203.171875 C 79.945312 203.164062 78.011719 203.386719 76.105469 203.832031 C 74.199219 204.277344 72.367188 204.933594 70.613281 205.808594 C 68.855469 206.679688 67.226562 207.742188 65.71875 208.992188 C 64.210938 210.246094 62.867188 211.652344 61.6875 213.21875 L 52.527344 225.207031 C 51.902344 224.945312 51.265625 224.714844 50.613281 224.519531 C 49.964844 224.324219 49.304688 224.164062 48.636719 224.039062 C 47.972656 223.910156 47.300781 223.820312 46.621094 223.769531 C 45.945312 223.714844 45.269531 223.695312 44.589844 223.714844 C 43.910156 223.734375 43.234375 223.789062 42.5625 223.878906 C 41.886719 223.96875 41.222656 224.09375 40.5625 224.257812 C 39.902344 224.417969 39.253906 224.613281 38.617188 224.84375 C 37.976562 225.074219 37.351562 225.339844 36.742188 225.636719 C 36.132812 225.933594 35.539062 226.261719 34.964844 226.625 C 34.386719 226.984375 33.832031 227.375 33.300781 227.792969 C 32.765625 228.214844 32.253906 228.660156 31.769531 229.132812 C 31.28125 229.609375 30.824219 230.105469 30.390625 230.628906 C 29.957031 231.152344 29.554688 231.699219 29.179688 232.261719 C 28.804688 232.828125 28.460938 233.414062 28.148438 234.015625 C 27.835938 234.621094 27.554688 235.238281 27.308594 235.871094 C 27.0625 236.503906 26.847656 237.144531 26.671875 237.800781 C 26.492188 238.457031 26.351562 239.121094 26.242188 239.789062 C 26.136719 240.460938 26.0625 241.132812 26.027344 241.8125 C 25.992188 242.492188 25.992188 243.167969 26.03125 243.847656 C 26.066406 244.523438 26.140625 245.199219 26.246094 245.871094 C 26.355469 246.539062 26.5 247.203125 26.679688 247.855469 C 26.859375 248.511719 27.070312 249.15625 27.320312 249.789062 C 27.566406 250.417969 27.847656 251.035156 28.164062 251.640625 C 28.476562 252.242188 28.820312 252.824219 29.195312 253.390625 C 29.574219 253.957031 29.976562 254.5 30.410156 255.023438 C 30.84375 255.542969 31.304688 256.042969 31.792969 256.515625 C 32.28125 256.988281 32.789062 257.433594 33.324219 257.851562 C 33.859375 258.273438 34.414062 258.660156 34.992188 259.019531 C 35.566406 259.378906 36.160156 259.707031 36.769531 260.003906 C 37.382812 260.300781 38.007812 260.5625 38.644531 260.792969 C 39.285156 261.023438 39.933594 261.21875 40.59375 261.378906 C 41.253906 261.539062 41.921875 261.664062 42.59375 261.753906 C 43.265625 261.84375 43.941406 261.894531 44.621094 261.914062 C 45.300781 261.929688 45.976562 261.910156 46.65625 261.855469 C 47.332031 261.800781 48.003906 261.710938 48.671875 261.582031 C 49.339844 261.457031 49.996094 261.296875 50.644531 261.097656 C 51.296875 260.902344 51.933594 260.671875 52.558594 260.40625 C 53.183594 260.140625 53.792969 259.84375 54.386719 259.511719 C 54.980469 259.183594 55.554688 258.824219 56.109375 258.433594 C 56.664062 258.042969 57.199219 257.621094 57.707031 257.175781 C 58.21875 256.726562 58.703125 256.253906 59.164062 255.753906 C 59.625 255.253906 60.054688 254.730469 60.460938 254.183594 C 60.863281 253.640625 61.238281 253.074219 61.582031 252.488281 C 61.925781 251.902344 62.238281 251.300781 62.515625 250.683594 C 62.796875 250.0625 63.042969 249.429688 63.253906 248.785156 C 63.46875 248.140625 63.644531 247.488281 63.785156 246.824219 C 63.929688 246.160156 64.035156 245.488281 64.105469 244.8125 C 64.179688 244.140625 64.214844 243.460938 64.210938 242.78125 C 64.191406 239.75 63.480469 236.890625 62.078125 234.199219 L 72.0625 221.128906 C 72.636719 220.367188 73.289062 219.679688 74.023438 219.066406 C 74.757812 218.457031 75.550781 217.9375 76.40625 217.511719 C 77.257812 217.085938 78.152344 216.761719 79.082031 216.542969 C 80.011719 216.324219 80.953125 216.21875 81.90625 216.21875 L 114.328125 216.21875 C 114.425781 216.859375 114.558594 217.492188 114.71875 218.121094 C 114.878906 218.746094 115.070312 219.367188 115.292969 219.976562 C 115.515625 220.582031 115.769531 221.179688 116.046875 221.765625 C 116.328125 222.347656 116.636719 222.917969 116.972656 223.472656 C 117.3125 224.023438 117.671875 224.5625 118.0625 225.078125 C 118.453125 225.597656 118.867188 226.09375 119.304688 226.574219 C 119.742188 227.050781 120.203125 227.503906 120.683594 227.9375 C 121.167969 228.371094 121.671875 228.777344 122.191406 229.160156 C 122.714844 229.542969 123.257812 229.902344 123.8125 230.230469 C 124.371094 230.5625 124.945312 230.863281 125.53125 231.136719 C 126.117188 231.410156 126.71875 231.65625 127.328125 231.871094 C 127.941406 232.085938 128.5625 232.269531 129.191406 232.421875 C 129.820312 232.578125 130.457031 232.699219 131.097656 232.792969 C 131.738281 232.882812 132.382812 232.945312 133.03125 232.972656 C 133.679688 233 134.324219 232.996094 134.972656 232.960938 C 135.621094 232.925781 136.265625 232.859375 136.90625 232.761719 L 136.90625 264.925781 C 136.90625 265.882812 136.796875 266.824219 136.578125 267.757812 C 136.359375 268.6875 136.035156 269.578125 135.609375 270.433594 C 135.179688 271.289062 134.660156 272.082031 134.046875 272.816406 C 133.4375 273.550781 132.746094 274.203125 131.984375 274.777344 L 118.914062 284.757812 C 118.257812 284.429688 117.582031 284.140625 116.886719 283.890625 C 116.195312 283.640625 115.488281 283.433594 114.773438 283.265625 C 114.054688 283.097656 113.332031 282.972656 112.597656 282.890625 C 111.867188 282.808594 111.132812 282.765625 110.398438 282.769531 C 109.660156 282.769531 108.925781 282.816406 108.195312 282.902344 C 107.464844 282.992188 106.742188 283.121094 106.023438 283.292969 C 105.308594 283.464844 104.605469 283.675781 103.914062 283.929688 C 103.222656 284.183594 102.546875 284.476562 101.890625 284.808594 C 101.230469 285.140625 100.597656 285.507812 99.980469 285.914062 C 99.367188 286.320312 98.777344 286.761719 98.214844 287.238281 C 97.652344 287.710938 97.117188 288.214844 96.613281 288.753906 C 96.109375 289.289062 95.636719 289.855469 95.199219 290.445312 C 94.761719 291.035156 94.359375 291.652344 93.992188 292.289062 C 93.625 292.929688 93.292969 293.585938 93.003906 294.261719 C 92.710938 294.9375 92.460938 295.628906 92.25 296.335938 C 92.042969 297.042969 91.871094 297.757812 91.746094 298.484375 C 91.617188 299.207031 91.535156 299.9375 91.492188 300.675781 C 91.449219 301.410156 91.449219 302.144531 91.492188 302.878906 C 91.539062 303.613281 91.625 304.34375 91.75 305.070312 C 91.878906 305.796875 92.050781 306.511719 92.261719 307.214844 C 92.472656 307.921875 92.726562 308.613281 93.015625 309.289062 C 93.308594 309.964844 93.640625 310.621094 94.007812 311.257812 C 94.375 311.898438 94.78125 312.511719 95.21875 313.101562 C 95.660156 313.691406 96.132812 314.257812 96.636719 314.792969 C 97.144531 315.328125 97.679688 315.832031 98.242188 316.304688 C 98.804688 316.777344 99.394531 317.21875 100.011719 317.625 C 100.625 318.027344 101.261719 318.394531 101.921875 318.726562 C 102.578125 319.058594 103.253906 319.347656 103.945312 319.601562 C 104.636719 319.855469 105.339844 320.066406 106.058594 320.234375 C 106.773438 320.40625 107.5 320.535156 108.230469 320.621094 C 108.960938 320.707031 109.695312 320.75 110.429688 320.75 C 111.167969 320.753906 111.902344 320.710938 112.632812 320.625 C 113.363281 320.542969 114.089844 320.414062 114.804688 320.246094 C 115.523438 320.078125 116.226562 319.867188 116.921875 319.617188 C 117.613281 319.367188 118.289062 319.074219 118.945312 318.746094 C 119.605469 318.417969 120.242188 318.050781 120.859375 317.648438 C 121.476562 317.242188 122.066406 316.804688 122.628906 316.332031 C 123.195312 315.859375 123.730469 315.355469 124.238281 314.824219 C 124.746094 314.289062 125.21875 313.726562 125.660156 313.136719 C 126.101562 312.546875 126.507812 311.933594 126.875 311.296875 C 127.246094 310.660156 127.578125 310.003906 127.871094 309.328125 C 128.164062 308.652344 128.417969 307.960938 128.632812 307.257812 C 128.84375 306.550781 129.015625 305.835938 129.144531 305.113281 C 129.277344 304.386719 129.363281 303.65625 129.410156 302.921875 C 129.453125 302.1875 129.457031 301.453125 129.414062 300.714844 C 129.375 299.980469 129.292969 299.25 129.167969 298.523438 C 129.042969 297.800781 128.875 297.082031 128.664062 296.378906 C 128.457031 295.671875 128.207031 294.980469 127.917969 294.300781 C 137.933594 286.753906 150.550781 279.1875 149.949219 264.925781 L 149.953125 232.761719 L 176.976562 232.761719 L 176.976562 309.003906 C 176.28125 309.257812 175.601562 309.550781 174.9375 309.882812 C 174.277344 310.214844 173.636719 310.585938 173.019531 310.992188 C 172.398438 311.398438 171.808594 311.839844 171.238281 312.316406 C 170.671875 312.792969 170.136719 313.300781 169.628906 313.839844 C 169.117188 314.375 168.644531 314.941406 168.203125 315.535156 C 167.757812 316.128906 167.351562 316.75 166.984375 317.390625 C 166.613281 318.03125 166.28125 318.691406 165.988281 319.371094 C 165.695312 320.050781 165.441406 320.746094 165.230469 321.457031 C 165.015625 322.164062 164.847656 322.882812 164.71875 323.613281 C 164.589844 324.34375 164.503906 325.078125 164.460938 325.816406 C 164.417969 326.554688 164.417969 327.292969 164.460938 328.035156 C 164.503906 328.773438 164.589844 329.507812 164.71875 330.234375 C 164.847656 330.964844 165.015625 331.683594 165.230469 332.394531 C 165.441406 333.101562 165.695312 333.796875 165.988281 334.476562 C 166.28125 335.15625 166.613281 335.816406 166.984375 336.460938 C 167.355469 337.101562 167.761719 337.71875 168.203125 338.3125 C 168.644531 338.90625 169.121094 339.472656 169.628906 340.011719 C 170.136719 340.550781 170.671875 341.058594 171.242188 341.53125 C 171.808594 342.007812 172.402344 342.449219 173.019531 342.855469 C 173.636719 343.265625 174.277344 343.632812 174.941406 343.964844 C 175.601562 344.296875 176.28125 344.589844 176.976562 344.84375 C 177.671875 345.097656 178.378906 345.308594 179.101562 345.480469 C 179.820312 345.652344 180.550781 345.777344 181.285156 345.863281 C 182.019531 345.949219 182.757812 345.992188 183.5 345.992188 C 184.238281 345.992188 184.976562 345.949219 185.710938 345.863281 C 186.449219 345.777344 187.175781 345.652344 187.894531 345.480469 C 188.617188 345.308594 189.324219 345.097656 190.019531 344.84375 C 190.714844 344.589844 191.394531 344.296875 192.058594 343.964844 C 192.71875 343.632812 193.359375 343.265625 193.976562 342.855469 C 194.597656 342.449219 195.1875 342.007812 195.757812 341.53125 C 196.324219 341.058594 196.859375 340.550781 197.371094 340.011719 C 197.878906 339.472656 198.351562 338.90625 198.792969 338.3125 C 199.238281 337.71875 199.644531 337.101562 200.011719 336.460938 C 200.382812 335.816406 200.714844 335.15625 201.007812 334.476562 C 201.300781 333.796875 201.554688 333.101562 201.765625 332.394531 C 201.980469 331.683594 202.148438 330.964844 202.277344 330.234375 C 202.40625 329.507812 202.492188 328.773438 202.535156 328.035156 C 202.578125 327.292969 202.578125 326.554688 202.535156 325.816406 C 202.492188 325.078125 202.40625 324.34375 202.277344 323.613281 C 202.148438 322.882812 201.980469 322.164062 201.765625 321.457031 C 201.554688 320.746094 201.300781 320.050781 201.007812 319.371094 C 200.714844 318.691406 200.382812 318.03125 200.015625 317.390625 C 199.644531 316.75 199.238281 316.128906 198.796875 315.535156 C 198.351562 314.941406 197.878906 314.375 197.371094 313.839844 C 196.863281 313.300781 196.324219 312.792969 195.757812 312.316406 C 195.191406 311.839844 194.597656 311.398438 193.976562 310.992188 C 193.359375 310.585938 192.71875 310.214844 192.058594 309.882812 C 191.394531 309.550781 190.71875 309.257812 190.023438 309.003906 L 190.023438 232.761719 L 217.046875 232.761719 L 217.046875 264.929688 C 217.039062 266.886719 217.261719 268.820312 217.707031 270.730469 C 218.152344 272.640625 218.808594 274.46875 219.683594 276.226562 C 220.554688 277.980469 221.617188 279.613281 222.871094 281.117188 C 224.121094 282.625 225.53125 283.96875 227.097656 285.148438 L 239.082031 294.304688 C 238.789062 294.984375 238.539062 295.683594 238.324219 296.394531 C 238.113281 297.105469 237.945312 297.824219 237.816406 298.554688 C 237.691406 299.285156 237.605469 300.023438 237.5625 300.761719 C 237.523438 301.503906 237.523438 302.246094 237.566406 302.984375 C 237.613281 303.726562 237.699219 304.460938 237.828125 305.191406 C 237.960938 305.921875 238.132812 306.640625 238.347656 307.351562 C 238.558594 308.0625 238.8125 308.757812 239.109375 309.4375 C 239.402344 310.121094 239.738281 310.78125 240.109375 311.421875 C 240.480469 312.066406 240.890625 312.683594 241.332031 313.277344 C 241.777344 313.871094 242.253906 314.4375 242.765625 314.976562 C 243.273438 315.515625 243.8125 316.023438 244.382812 316.5 C 244.953125 316.976562 245.546875 317.417969 246.167969 317.824219 C 246.785156 318.230469 247.429688 318.601562 248.09375 318.933594 C 248.753906 319.265625 249.4375 319.554688 250.132812 319.808594 C 250.832031 320.0625 251.539062 320.273438 252.261719 320.445312 C 252.984375 320.613281 253.714844 320.742188 254.449219 320.828125 C 255.1875 320.910156 255.925781 320.953125 256.667969 320.953125 C 257.410156 320.953125 258.148438 320.910156 258.886719 320.820312 C 259.625 320.734375 260.351562 320.605469 261.074219 320.433594 C 261.796875 320.261719 262.503906 320.046875 263.203125 319.792969 C 263.898438 319.539062 264.578125 319.246094 265.242188 318.914062 C 265.90625 318.578125 266.546875 318.207031 267.164062 317.800781 C 267.785156 317.390625 268.378906 316.949219 268.945312 316.472656 C 269.515625 315.992188 270.050781 315.484375 270.5625 314.945312 C 271.070312 314.40625 271.546875 313.835938 271.988281 313.242188 C 272.429688 312.648438 272.835938 312.027344 273.207031 311.386719 C 273.578125 310.742188 273.910156 310.082031 274.203125 309.398438 C 274.496094 308.71875 274.75 308.019531 274.960938 307.308594 C 275.175781 306.601562 275.34375 305.878906 275.472656 305.148438 C 275.601562 304.417969 275.6875 303.683594 275.730469 302.941406 C 275.773438 302.199219 275.773438 301.460938 275.730469 300.71875 C 275.683594 299.980469 275.597656 299.242188 275.46875 298.511719 C 275.339844 297.78125 275.167969 297.0625 274.957031 296.351562 C 274.742188 295.640625 274.488281 294.945312 274.195312 294.261719 C 273.902344 293.582031 273.570312 292.921875 273.199219 292.277344 C 272.828125 291.636719 272.421875 291.015625 271.976562 290.421875 C 271.535156 289.828125 271.058594 289.261719 270.546875 288.71875 C 270.039062 288.179688 269.5 287.671875 268.933594 287.195312 C 268.363281 286.71875 267.769531 286.277344 267.148438 285.871094 C 266.53125 285.460938 265.890625 285.089844 265.226562 284.757812 C 264.5625 284.425781 263.882812 284.132812 263.1875 283.878906 C 262.488281 283.625 261.777344 283.414062 261.058594 283.242188 C 260.335938 283.070312 259.605469 282.941406 258.871094 282.855469 C 258.132812 282.769531 257.394531 282.726562 256.652344 282.726562 C 255.910156 282.726562 255.171875 282.769531 254.433594 282.855469 C 253.695312 282.941406 252.96875 283.070312 252.246094 283.238281 C 251.523438 283.410156 250.8125 283.621094 250.117188 283.875 C 249.417969 284.128906 248.738281 284.421875 248.074219 284.753906 L 235.003906 274.769531 C 234.242188 274.195312 233.554688 273.542969 232.941406 272.808594 C 232.332031 272.078125 231.8125 271.285156 231.386719 270.429688 C 230.960938 269.574219 230.636719 268.683594 230.417969 267.753906 C 230.203125 266.824219 230.09375 265.882812 230.09375 264.925781 L 230.09375 232.761719 C 230.734375 232.859375 231.378906 232.925781 232.023438 232.960938 C 232.671875 232.996094 233.320312 233 233.96875 232.972656 C 234.613281 232.945312 235.257812 232.882812 235.902344 232.792969 C 236.542969 232.699219 237.175781 232.578125 237.808594 232.421875 C 238.4375 232.269531 239.058594 232.085938 239.667969 231.871094 C 240.28125 231.65625 240.878906 231.410156 241.464844 231.136719 C 242.054688 230.863281 242.625 230.5625 243.183594 230.230469 C 243.742188 229.902344 244.28125 229.542969 244.804688 229.160156 C 245.328125 228.777344 245.832031 228.371094 246.3125 227.9375 C 246.796875 227.503906 247.257812 227.050781 247.695312 226.574219 C 248.132812 226.09375 248.546875 225.597656 248.933594 225.078125 C 249.324219 224.5625 249.6875 224.023438 250.023438 223.472656 C 250.359375 222.917969 250.667969 222.347656 250.949219 221.765625 C 251.230469 221.179688 251.480469 220.582031 251.703125 219.972656 C 251.925781 219.367188 252.117188 218.746094 252.277344 218.121094 C 252.441406 217.492188 252.570312 216.859375 252.667969 216.21875 L 285.089844 216.21875 C 286.046875 216.21875 286.992188 216.328125 287.921875 216.546875 C 288.851562 216.765625 289.746094 217.085938 290.601562 217.515625 C 291.453125 217.941406 292.25 218.460938 292.984375 219.074219 C 293.71875 219.6875 294.371094 220.378906 294.945312 221.140625 L 304.921875 234.207031 C 304.59375 234.867188 304.304688 235.542969 304.054688 236.234375 C 303.804688 236.929688 303.597656 237.632812 303.429688 238.351562 C 303.261719 239.070312 303.136719 239.792969 303.050781 240.527344 C 302.96875 241.257812 302.925781 241.992188 302.929688 242.730469 C 302.929688 243.464844 302.976562 244.199219 303.0625 244.933594 C 303.152344 245.664062 303.28125 246.386719 303.453125 247.105469 C 303.625 247.820312 303.835938 248.527344 304.089844 249.21875 C 304.34375 249.910156 304.636719 250.582031 304.96875 251.242188 C 305.300781 251.898438 305.671875 252.535156 306.074219 253.152344 C 306.480469 253.765625 306.921875 254.355469 307.398438 254.917969 C 307.871094 255.480469 308.378906 256.015625 308.914062 256.519531 C 309.453125 257.027344 310.015625 257.496094 310.609375 257.9375 C 311.199219 258.375 311.8125 258.777344 312.453125 259.148438 C 313.089844 259.515625 313.75 259.84375 314.425781 260.132812 C 315.105469 260.425781 315.796875 260.675781 316.5 260.886719 C 317.207031 261.097656 317.921875 261.265625 318.648438 261.394531 C 319.375 261.519531 320.105469 261.605469 320.839844 261.648438 C 321.578125 261.691406 322.3125 261.6875 323.046875 261.644531 C 323.785156 261.601562 324.515625 261.515625 325.238281 261.386719 C 325.964844 261.261719 326.679688 261.089844 327.386719 260.878906 C 328.09375 260.667969 328.785156 260.414062 329.460938 260.121094 C 330.136719 259.832031 330.792969 259.5 331.433594 259.132812 C 332.070312 258.761719 332.683594 258.359375 333.277344 257.917969 C 333.867188 257.480469 334.429688 257.007812 334.96875 256.5 C 335.503906 255.996094 336.007812 255.460938 336.480469 254.894531 C 336.957031 254.332031 337.394531 253.742188 337.800781 253.125 C 338.207031 252.511719 338.574219 251.875 338.90625 251.214844 C 339.234375 250.558594 339.527344 249.882812 339.78125 249.191406 C 340.03125 248.496094 340.242188 247.792969 340.414062 247.074219 C 340.585938 246.359375 340.714844 245.636719 340.800781 244.902344 C 340.886719 244.171875 340.929688 243.4375 340.929688 242.699219 C 340.929688 241.964844 340.890625 241.230469 340.804688 240.496094 C 340.71875 239.765625 340.59375 239.039062 340.425781 238.324219 C 340.253906 237.605469 340.046875 236.902344 339.792969 236.207031 C 339.542969 235.515625 339.253906 234.839844 338.925781 234.179688 C 338.59375 233.519531 338.226562 232.882812 337.824219 232.265625 C 337.421875 231.648438 336.980469 231.058594 336.507812 230.492188 C 336.035156 229.929688 335.535156 229.390625 335 228.886719 C 334.464844 228.378906 333.902344 227.90625 333.3125 227.464844 C 332.722656 227.023438 332.105469 226.617188 331.46875 226.246094 C 330.832031 225.875 330.175781 225.542969 329.5 225.25 C 328.824219 224.957031 328.132812 224.703125 327.429688 224.492188 C 326.722656 224.277344 326.007812 224.105469 325.28125 223.976562 C 324.558594 223.847656 323.828125 223.757812 323.089844 223.714844 C 322.355469 223.667969 321.621094 223.667969 320.882812 223.707031 C 320.148438 223.746094 319.417969 223.832031 318.691406 223.957031 C 317.964844 224.082031 317.25 224.25 316.542969 224.457031 C 315.835938 224.667969 315.144531 224.914062 314.464844 225.207031 L 305.316406 213.230469 C 304.140625 211.664062 302.796875 210.253906 301.289062 209 C 299.78125 207.746094 298.148438 206.683594 296.394531 205.8125 C 294.636719 204.9375 292.804688 204.277344 290.894531 203.832031 C 288.988281 203.386719 287.050781 203.167969 285.089844 203.171875 L 252.929688 203.171875 L 252.929688 176.148438 L 329.171875 176.148438 C 329.570312 177.234375 330.0625 178.277344 330.648438 179.277344 C 331.238281 180.277344 331.914062 181.214844 332.671875 182.089844 C 333.429688 182.964844 334.261719 183.765625 335.167969 184.488281 C 336.074219 185.214844 337.035156 185.851562 338.058594 186.398438 C 339.078125 186.949219 340.140625 187.398438 341.242188 187.753906 C 342.347656 188.109375 343.472656 188.363281 344.625 188.511719 C 345.773438 188.660156 346.925781 188.703125 348.082031 188.644531 C 349.242188 188.582031 350.382812 188.417969 351.511719 188.148438 C 352.640625 187.878906 353.734375 187.511719 354.792969 187.042969 C 355.851562 186.574219 356.863281 186.015625 357.820312 185.363281 C 358.777344 184.710938 359.667969 183.976562 360.492188 183.160156 C 361.316406 182.34375 362.0625 181.464844 362.726562 180.511719 C 363.386719 179.5625 363.960938 178.558594 364.441406 177.503906 C 364.921875 176.449219 365.304688 175.359375 365.585938 174.234375 C 365.867188 173.109375 366.042969 171.972656 366.117188 170.8125 C 366.191406 169.65625 366.160156 168.503906 366.023438 167.351562 C 365.886719 166.203125 365.648438 165.070312 365.308594 163.964844 C 364.964844 162.855469 364.523438 161.789062 363.988281 160.761719 C 363.449219 159.734375 362.824219 158.765625 362.113281 157.851562 C 361.398438 156.9375 360.609375 156.097656 359.742188 155.328125 C 358.875 154.558594 357.945312 153.875 356.953125 153.273438 C 355.960938 152.675781 354.921875 152.171875 353.835938 151.757812 C 352.753906 151.347656 351.640625 151.039062 350.5 150.832031 C 349.359375 150.625 348.210938 150.523438 347.050781 150.523438 Z M 321.890625 90.410156 C 322.285156 90.417969 322.671875 90.464844 323.054688 90.546875 C 323.441406 90.628906 323.8125 90.75 324.171875 90.90625 C 324.535156 91.058594 324.875 91.25 325.199219 91.472656 C 325.523438 91.691406 325.824219 91.945312 326.097656 92.226562 C 326.375 92.503906 326.617188 92.808594 326.835938 93.136719 C 327.050781 93.464844 327.234375 93.8125 327.382812 94.175781 C 327.53125 94.539062 327.640625 94.914062 327.71875 95.300781 C 327.792969 95.683594 327.832031 96.074219 327.832031 96.464844 C 327.832031 96.859375 327.792969 97.25 327.71875 97.632812 C 327.640625 98.019531 327.53125 98.394531 327.382812 98.757812 C 327.234375 99.121094 327.050781 99.464844 326.835938 99.792969 C 326.617188 100.121094 326.375 100.425781 326.097656 100.707031 C 325.824219 100.988281 325.523438 101.238281 325.199219 101.460938 C 324.875 101.683594 324.535156 101.871094 324.171875 102.027344 C 323.8125 102.183594 323.441406 102.300781 323.054688 102.386719 C 322.671875 102.46875 322.285156 102.515625 321.890625 102.519531 C 321.5 102.515625 321.109375 102.46875 320.726562 102.386719 C 320.34375 102.300781 319.96875 102.183594 319.609375 102.027344 C 319.25 101.871094 318.90625 101.683594 318.582031 101.460938 C 318.257812 101.238281 317.957031 100.988281 317.683594 100.707031 C 317.410156 100.425781 317.164062 100.121094 316.945312 99.792969 C 316.730469 99.464844 316.546875 99.121094 316.398438 98.757812 C 316.25 98.394531 316.140625 98.019531 316.0625 97.632812 C 315.988281 97.246094 315.949219 96.859375 315.949219 96.464844 C 315.949219 96.074219 315.988281 95.683594 316.0625 95.296875 C 316.140625 94.914062 316.25 94.539062 316.398438 94.175781 C 316.550781 93.8125 316.730469 93.464844 316.945312 93.136719 C 317.164062 92.808594 317.410156 92.503906 317.683594 92.222656 C 317.957031 91.945312 318.257812 91.691406 318.582031 91.472656 C 318.90625 91.25 319.25 91.058594 319.609375 90.90625 C 319.96875 90.75 320.34375 90.628906 320.726562 90.546875 C 321.109375 90.464844 321.5 90.417969 321.890625 90.410156 Z M 256.660156 18.886719 C 257.050781 18.894531 257.441406 18.941406 257.824219 19.023438 C 258.207031 19.109375 258.578125 19.226562 258.941406 19.382812 C 259.300781 19.539062 259.640625 19.726562 259.964844 19.949219 C 260.289062 20.171875 260.589844 20.421875 260.863281 20.703125 C 261.140625 20.984375 261.382812 21.289062 261.601562 21.617188 C 261.816406 21.945312 261.996094 22.289062 262.144531 22.652344 C 262.296875 23.015625 262.40625 23.390625 262.484375 23.777344 C 262.558594 24.160156 262.597656 24.550781 262.597656 24.941406 C 262.597656 25.335938 262.558594 25.726562 262.484375 26.109375 C 262.40625 26.496094 262.292969 26.871094 262.144531 27.234375 C 261.996094 27.597656 261.816406 27.941406 261.601562 28.269531 C 261.382812 28.597656 261.140625 28.902344 260.863281 29.183594 C 260.589844 29.464844 260.289062 29.714844 259.964844 29.9375 C 259.640625 30.160156 259.300781 30.347656 258.941406 30.503906 C 258.578125 30.660156 258.207031 30.777344 257.824219 30.863281 C 257.441406 30.945312 257.050781 30.992188 256.660156 31 C 256.265625 30.992188 255.878906 30.945312 255.496094 30.863281 C 255.109375 30.777344 254.738281 30.660156 254.378906 30.503906 C 254.015625 30.347656 253.675781 30.160156 253.351562 29.9375 C 253.027344 29.714844 252.726562 29.464844 252.453125 29.183594 C 252.179688 28.902344 251.933594 28.597656 251.71875 28.269531 C 251.5 27.941406 251.320312 27.597656 251.171875 27.234375 C 251.023438 26.871094 250.910156 26.496094 250.835938 26.109375 C 250.757812 25.722656 250.722656 25.335938 250.722656 24.941406 C 250.722656 24.550781 250.757812 24.160156 250.835938 23.777344 C 250.910156 23.390625 251.023438 23.015625 251.171875 22.652344 C 251.320312 22.289062 251.503906 21.945312 251.71875 21.617188 C 251.933594 21.289062 252.179688 20.984375 252.453125 20.703125 C 252.730469 20.421875 253.027344 20.171875 253.351562 19.949219 C 253.675781 19.726562 254.019531 19.539062 254.378906 19.382812 C 254.738281 19.226562 255.109375 19.105469 255.496094 19.023438 C 255.878906 18.941406 256.265625 18.894531 256.660156 18.886719 Z M 104.285156 24.945312 C 104.289062 24.554688 104.335938 24.164062 104.417969 23.78125 C 104.503906 23.398438 104.621094 23.023438 104.777344 22.664062 C 104.933594 22.304688 105.121094 21.960938 105.34375 21.636719 C 105.566406 21.3125 105.816406 21.015625 106.097656 20.738281 C 106.378906 20.464844 106.683594 20.21875 107.011719 20.003906 C 107.339844 19.785156 107.683594 19.605469 108.050781 19.457031 C 108.414062 19.308594 108.789062 19.195312 109.171875 19.121094 C 109.558594 19.042969 109.949219 19.003906 110.339844 19.003906 C 110.734375 19.003906 111.121094 19.042969 111.507812 19.121094 C 111.894531 19.195312 112.269531 19.308594 112.632812 19.457031 C 112.996094 19.605469 113.339844 19.785156 113.667969 20.003906 C 113.996094 20.21875 114.300781 20.464844 114.582031 20.738281 C 114.863281 21.015625 115.113281 21.3125 115.335938 21.636719 C 115.558594 21.960938 115.746094 22.304688 115.902344 22.664062 C 116.058594 23.023438 116.175781 23.398438 116.261719 23.78125 C 116.34375 24.164062 116.390625 24.554688 116.398438 24.945312 C 116.390625 25.339844 116.34375 25.726562 116.261719 26.113281 C 116.175781 26.496094 116.058594 26.867188 115.902344 27.230469 C 115.746094 27.589844 115.558594 27.929688 115.335938 28.253906 C 115.113281 28.578125 114.863281 28.878906 114.582031 29.152344 C 114.300781 29.429688 113.996094 29.675781 113.667969 29.890625 C 113.339844 30.105469 112.996094 30.289062 112.632812 30.4375 C 112.265625 30.585938 111.894531 30.699219 111.507812 30.773438 C 111.121094 30.847656 110.734375 30.886719 110.339844 30.886719 C 109.945312 30.886719 109.558594 30.847656 109.171875 30.773438 C 108.785156 30.699219 108.414062 30.585938 108.046875 30.4375 C 107.683594 30.289062 107.339844 30.105469 107.011719 29.890625 C 106.683594 29.675781 106.378906 29.429688 106.097656 29.152344 C 105.816406 28.878906 105.566406 28.578125 105.34375 28.253906 C 105.121094 27.929688 104.933594 27.589844 104.777344 27.226562 C 104.621094 26.867188 104.503906 26.496094 104.417969 26.109375 C 104.335938 25.726562 104.289062 25.339844 104.285156 24.945312 Z M 39.046875 96.46875 C 39.054688 96.078125 39.101562 95.6875 39.183594 95.304688 C 39.269531 94.921875 39.386719 94.546875 39.542969 94.1875 C 39.699219 93.828125 39.886719 93.484375 40.109375 93.160156 C 40.332031 92.835938 40.582031 92.535156 40.863281 92.261719 C 41.144531 91.988281 41.449219 91.742188 41.777344 91.527344 C 42.105469 91.308594 42.453125 91.128906 42.816406 90.980469 C 43.179688 90.832031 43.554688 90.71875 43.9375 90.640625 C 44.324219 90.566406 44.714844 90.527344 45.105469 90.527344 C 45.5 90.527344 45.886719 90.566406 46.273438 90.644531 C 46.660156 90.71875 47.035156 90.832031 47.398438 90.980469 C 47.761719 91.128906 48.109375 91.308594 48.4375 91.527344 C 48.765625 91.742188 49.070312 91.988281 49.347656 92.261719 C 49.628906 92.539062 49.882812 92.835938 50.101562 93.160156 C 50.324219 93.484375 50.515625 93.828125 50.671875 94.1875 C 50.824219 94.546875 50.945312 94.921875 51.027344 95.304688 C 51.113281 95.6875 51.15625 96.078125 51.164062 96.46875 C 51.15625 96.863281 51.113281 97.25 51.027344 97.632812 C 50.945312 98.019531 50.824219 98.390625 50.667969 98.75 C 50.515625 99.113281 50.324219 99.453125 50.101562 99.777344 C 49.878906 100.101562 49.628906 100.402344 49.347656 100.675781 C 49.066406 100.953125 48.765625 101.199219 48.4375 101.414062 C 48.105469 101.628906 47.761719 101.8125 47.398438 101.960938 C 47.035156 102.109375 46.660156 102.21875 46.273438 102.296875 C 45.886719 102.371094 45.5 102.410156 45.105469 102.410156 C 44.714844 102.410156 44.324219 102.371094 43.9375 102.296875 C 43.554688 102.21875 43.179688 102.109375 42.816406 101.960938 C 42.453125 101.8125 42.105469 101.628906 41.777344 101.414062 C 41.449219 101.199219 41.144531 100.953125 40.863281 100.675781 C 40.582031 100.402344 40.332031 100.101562 40.109375 99.777344 C 39.886719 99.453125 39.699219 99.113281 39.542969 98.75 C 39.386719 98.390625 39.269531 98.019531 39.183594 97.632812 C 39.101562 97.25 39.054688 96.863281 39.046875 96.46875 Z M 19.945312 175.683594 C 19.554688 175.675781 19.164062 175.628906 18.78125 175.546875 C 18.398438 175.460938 18.023438 175.34375 17.664062 175.1875 C 17.304688 175.03125 16.960938 174.84375 16.636719 174.621094 C 16.3125 174.398438 16.011719 174.148438 15.738281 173.867188 C 15.464844 173.585938 15.21875 173.28125 15 172.953125 C 14.785156 172.625 14.605469 172.28125 14.457031 171.917969 C 14.308594 171.554688 14.195312 171.179688 14.117188 170.792969 C 14.042969 170.40625 14.003906 170.019531 14.003906 169.625 C 14.003906 169.234375 14.042969 168.84375 14.117188 168.457031 C 14.195312 168.074219 14.308594 167.699219 14.457031 167.335938 C 14.605469 166.972656 14.785156 166.625 15.003906 166.296875 C 15.21875 165.96875 15.464844 165.664062 15.738281 165.386719 C 16.015625 165.105469 16.3125 164.851562 16.636719 164.632812 C 16.960938 164.410156 17.304688 164.21875 17.664062 164.066406 C 18.023438 163.910156 18.398438 163.789062 18.78125 163.707031 C 19.164062 163.625 19.554688 163.578125 19.945312 163.570312 C 20.339844 163.578125 20.726562 163.625 21.109375 163.707031 C 21.496094 163.789062 21.867188 163.910156 22.226562 164.066406 C 22.589844 164.21875 22.929688 164.410156 23.253906 164.632812 C 23.578125 164.855469 23.878906 165.105469 24.152344 165.386719 C 24.429688 165.664062 24.675781 165.96875 24.890625 166.296875 C 25.105469 166.625 25.289062 166.972656 25.4375 167.335938 C 25.585938 167.699219 25.695312 168.074219 25.773438 168.460938 C 25.847656 168.84375 25.886719 169.234375 25.886719 169.625 C 25.886719 170.019531 25.847656 170.410156 25.773438 170.792969 C 25.695312 171.179688 25.585938 171.554688 25.4375 171.917969 C 25.289062 172.28125 25.105469 172.628906 24.890625 172.957031 C 24.671875 173.285156 24.429688 173.585938 24.152344 173.867188 C 23.878906 174.148438 23.578125 174.398438 23.253906 174.621094 C 22.929688 174.84375 22.589844 175.03125 22.226562 175.1875 C 21.867188 175.34375 21.496094 175.460938 21.109375 175.546875 C 20.726562 175.628906 20.339844 175.675781 19.945312 175.683594 Z M 45.105469 248.84375 C 44.714844 248.835938 44.324219 248.789062 43.941406 248.707031 C 43.558594 248.621094 43.183594 248.503906 42.824219 248.347656 C 42.464844 248.191406 42.121094 248.003906 41.796875 247.78125 C 41.472656 247.558594 41.175781 247.304688 40.898438 247.027344 C 40.625 246.746094 40.378906 246.441406 40.164062 246.113281 C 39.945312 245.785156 39.765625 245.4375 39.617188 245.074219 C 39.46875 244.710938 39.355469 244.335938 39.28125 243.949219 C 39.203125 243.566406 39.167969 243.175781 39.167969 242.785156 C 39.167969 242.390625 39.203125 242 39.28125 241.617188 C 39.355469 241.230469 39.46875 240.855469 39.617188 240.492188 C 39.765625 240.128906 39.945312 239.78125 40.164062 239.453125 C 40.378906 239.125 40.625 238.820312 40.898438 238.542969 C 41.175781 238.261719 41.472656 238.007812 41.796875 237.785156 C 42.121094 237.566406 42.464844 237.375 42.824219 237.21875 C 43.183594 237.0625 43.558594 236.945312 43.941406 236.863281 C 44.324219 236.777344 44.714844 236.734375 45.105469 236.726562 C 45.5 236.734375 45.886719 236.777344 46.273438 236.863281 C 46.65625 236.945312 47.027344 237.0625 47.390625 237.21875 C 47.75 237.375 48.09375 237.566406 48.414062 237.785156 C 48.738281 238.007812 49.039062 238.261719 49.316406 238.542969 C 49.589844 238.820312 49.835938 239.125 50.050781 239.453125 C 50.265625 239.78125 50.449219 240.128906 50.597656 240.492188 C 50.746094 240.855469 50.859375 241.230469 50.933594 241.617188 C 51.007812 242 51.046875 242.390625 51.046875 242.785156 C 51.046875 243.175781 51.007812 243.566406 50.933594 243.953125 C 50.859375 244.335938 50.746094 244.710938 50.597656 245.074219 C 50.449219 245.4375 50.265625 245.785156 50.050781 246.113281 C 49.835938 246.441406 49.589844 246.746094 49.3125 247.027344 C 49.039062 247.308594 48.738281 247.558594 48.414062 247.78125 C 48.089844 248.003906 47.75 248.191406 47.386719 248.347656 C 47.027344 248.503906 46.65625 248.621094 46.273438 248.707031 C 45.886719 248.789062 45.5 248.835938 45.105469 248.84375 Z M 110.339844 307.78125 C 109.945312 307.773438 109.558594 307.730469 109.175781 307.648438 C 108.789062 307.5625 108.417969 307.445312 108.058594 307.289062 C 107.695312 307.132812 107.355469 306.945312 107.03125 306.722656 C 106.707031 306.5 106.40625 306.25 106.132812 305.96875 C 105.859375 305.6875 105.613281 305.382812 105.398438 305.054688 C 105.179688 304.726562 105 304.382812 104.851562 304.019531 C 104.703125 303.65625 104.589844 303.28125 104.515625 302.894531 C 104.4375 302.507812 104.402344 302.121094 104.402344 301.726562 C 104.402344 301.335938 104.4375 300.945312 104.515625 300.5625 C 104.589844 300.175781 104.703125 299.800781 104.851562 299.4375 C 105 299.074219 105.179688 298.726562 105.398438 298.398438 C 105.613281 298.070312 105.859375 297.769531 106.132812 297.488281 C 106.40625 297.207031 106.707031 296.957031 107.03125 296.734375 C 107.355469 296.511719 107.695312 296.324219 108.058594 296.167969 C 108.417969 296.011719 108.789062 295.890625 109.175781 295.808594 C 109.558594 295.726562 109.945312 295.679688 110.339844 295.671875 C 110.730469 295.679688 111.121094 295.726562 111.503906 295.808594 C 111.886719 295.890625 112.257812 296.011719 112.621094 296.167969 C 112.980469 296.324219 113.320312 296.511719 113.644531 296.734375 C 113.96875 296.957031 114.269531 297.207031 114.542969 297.488281 C 114.820312 297.769531 115.0625 298.070312 115.28125 298.398438 C 115.496094 298.726562 115.679688 299.074219 115.828125 299.4375 C 115.976562 299.800781 116.085938 300.175781 116.164062 300.5625 C 116.238281 300.945312 116.277344 301.335938 116.277344 301.726562 C 116.277344 302.121094 116.238281 302.507812 116.164062 302.894531 C 116.085938 303.28125 115.976562 303.65625 115.828125 304.019531 C 115.679688 304.382812 115.496094 304.726562 115.28125 305.054688 C 115.0625 305.382812 114.820312 305.6875 114.542969 305.96875 C 114.269531 306.25 113.96875 306.5 113.644531 306.722656 C 113.320312 306.945312 112.980469 307.132812 112.621094 307.289062 C 112.257812 307.445312 111.886719 307.5625 111.503906 307.648438 C 111.121094 307.730469 110.730469 307.773438 110.339844 307.78125 Z M 183.5 332.945312 C 183.105469 332.9375 182.71875 332.894531 182.332031 332.808594 C 181.949219 332.726562 181.578125 332.609375 181.21875 332.453125 C 180.855469 332.296875 180.515625 332.105469 180.191406 331.886719 C 179.867188 331.664062 179.566406 331.410156 179.292969 331.128906 C 179.015625 330.851562 178.769531 330.546875 178.554688 330.21875 C 178.339844 329.890625 178.15625 329.542969 178.007812 329.179688 C 177.859375 328.816406 177.75 328.441406 177.671875 328.054688 C 177.597656 327.671875 177.558594 327.28125 177.558594 326.886719 C 177.558594 326.496094 177.597656 326.105469 177.671875 325.722656 C 177.75 325.335938 177.859375 324.960938 178.007812 324.597656 C 178.15625 324.234375 178.339844 323.886719 178.554688 323.558594 C 178.769531 323.230469 179.015625 322.925781 179.292969 322.644531 C 179.566406 322.367188 179.867188 322.113281 180.191406 321.890625 C 180.515625 321.667969 180.855469 321.480469 181.21875 321.324219 C 181.578125 321.167969 181.949219 321.050781 182.335938 320.964844 C 182.71875 320.882812 183.105469 320.835938 183.5 320.832031 C 183.890625 320.835938 184.28125 320.882812 184.664062 320.964844 C 185.046875 321.050781 185.421875 321.167969 185.78125 321.324219 C 186.140625 321.480469 186.484375 321.667969 186.808594 321.890625 C 187.132812 322.113281 187.429688 322.367188 187.707031 322.644531 C 187.980469 322.925781 188.226562 323.230469 188.441406 323.558594 C 188.660156 323.886719 188.839844 324.234375 188.988281 324.597656 C 189.136719 324.960938 189.25 325.335938 189.324219 325.722656 C 189.402344 326.105469 189.4375 326.496094 189.4375 326.890625 C 189.4375 327.28125 189.402344 327.671875 189.324219 328.054688 C 189.25 328.441406 189.136719 328.816406 188.988281 329.179688 C 188.839844 329.542969 188.660156 329.890625 188.441406 330.21875 C 188.226562 330.546875 187.980469 330.851562 187.707031 331.132812 C 187.429688 331.410156 187.132812 331.664062 186.808594 331.886719 C 186.484375 332.109375 186.140625 332.296875 185.78125 332.453125 C 185.421875 332.609375 185.046875 332.726562 184.664062 332.808594 C 184.28125 332.894531 183.890625 332.9375 183.5 332.945312 Z M 262.714844 301.726562 C 262.707031 302.117188 262.660156 302.503906 262.578125 302.890625 C 262.496094 303.273438 262.375 303.644531 262.21875 304.007812 C 262.0625 304.367188 261.875 304.710938 261.652344 305.035156 C 261.429688 305.355469 261.179688 305.65625 260.898438 305.933594 C 260.617188 306.207031 260.316406 306.453125 259.984375 306.667969 C 259.65625 306.882812 259.3125 307.066406 258.949219 307.214844 C 258.585938 307.363281 258.210938 307.476562 257.824219 307.550781 C 257.4375 307.625 257.050781 307.664062 256.65625 307.664062 C 256.265625 307.664062 255.875 307.625 255.488281 307.550781 C 255.105469 307.476562 254.730469 307.363281 254.367188 307.214844 C 254.003906 307.066406 253.65625 306.882812 253.328125 306.667969 C 253 306.453125 252.695312 306.207031 252.414062 305.929688 C 252.136719 305.65625 251.882812 305.355469 251.660156 305.03125 C 251.441406 304.710938 251.25 304.367188 251.09375 304.007812 C 250.9375 303.644531 250.820312 303.273438 250.738281 302.890625 C 250.652344 302.503906 250.609375 302.117188 250.601562 301.722656 C 250.609375 301.332031 250.652344 300.941406 250.738281 300.558594 C 250.820312 300.175781 250.941406 299.804688 251.09375 299.441406 C 251.25 299.082031 251.441406 298.738281 251.660156 298.414062 C 251.882812 298.089844 252.136719 297.792969 252.414062 297.515625 C 252.695312 297.242188 253 296.996094 253.328125 296.78125 C 253.65625 296.566406 254.003906 296.382812 254.367188 296.234375 C 254.730469 296.085938 255.105469 295.972656 255.492188 295.898438 C 255.875 295.820312 256.265625 295.785156 256.65625 295.785156 C 257.050781 295.785156 257.441406 295.820312 257.824219 295.898438 C 258.210938 295.972656 258.585938 296.085938 258.949219 296.234375 C 259.3125 296.382812 259.660156 296.566406 259.988281 296.78125 C 260.316406 296.996094 260.621094 297.242188 260.898438 297.515625 C 261.179688 297.792969 261.429688 298.09375 261.652344 298.414062 C 261.875 298.738281 262.066406 299.082031 262.21875 299.441406 C 262.375 299.804688 262.496094 300.175781 262.578125 300.558594 C 262.660156 300.945312 262.707031 301.332031 262.714844 301.726562 Z M 327.949219 242.785156 C 327.941406 243.175781 327.894531 243.566406 327.8125 243.949219 C 327.730469 244.332031 327.609375 244.703125 327.453125 245.066406 C 327.300781 245.425781 327.109375 245.769531 326.886719 246.09375 C 326.664062 246.417969 326.414062 246.714844 326.132812 246.992188 C 325.851562 247.265625 325.546875 247.511719 325.21875 247.726562 C 324.890625 247.945312 324.546875 248.125 324.183594 248.273438 C 323.820312 248.421875 323.445312 248.535156 323.058594 248.609375 C 322.671875 248.6875 322.285156 248.722656 321.890625 248.722656 C 321.5 248.722656 321.109375 248.6875 320.722656 248.609375 C 320.339844 248.535156 319.964844 248.421875 319.601562 248.273438 C 319.234375 248.125 318.890625 247.941406 318.5625 247.726562 C 318.234375 247.511719 317.929688 247.265625 317.648438 246.992188 C 317.367188 246.714844 317.117188 246.417969 316.894531 246.09375 C 316.671875 245.769531 316.484375 245.425781 316.328125 245.066406 C 316.171875 244.703125 316.050781 244.332031 315.96875 243.949219 C 315.886719 243.5625 315.839844 243.175781 315.832031 242.78125 C 315.839844 242.390625 315.886719 242 315.96875 241.617188 C 316.050781 241.234375 316.171875 240.863281 316.328125 240.5 C 316.484375 240.140625 316.671875 239.796875 316.894531 239.472656 C 317.117188 239.148438 317.367188 238.851562 317.648438 238.574219 C 317.929688 238.300781 318.234375 238.054688 318.5625 237.839844 C 318.890625 237.625 319.234375 237.441406 319.601562 237.292969 C 319.964844 237.144531 320.339844 237.03125 320.722656 236.957031 C 321.109375 236.878906 321.5 236.84375 321.890625 236.84375 C 322.285156 236.84375 322.671875 236.878906 323.058594 236.957031 C 323.445312 237.03125 323.820312 237.144531 324.183594 237.292969 C 324.546875 237.441406 324.890625 237.625 325.222656 237.839844 C 325.550781 238.054688 325.851562 238.300781 326.132812 238.574219 C 326.414062 238.851562 326.664062 239.148438 326.886719 239.472656 C 327.109375 239.796875 327.300781 240.140625 327.453125 240.5 C 327.609375 240.863281 327.730469 241.234375 327.8125 241.617188 C 327.898438 242.003906 327.941406 242.390625 327.949219 242.785156 Z M 239.882812 213.65625 C 239.882812 214.054688 239.84375 214.449219 239.765625 214.839844 C 239.6875 215.226562 239.570312 215.605469 239.417969 215.972656 C 239.265625 216.339844 239.078125 216.691406 238.859375 217.019531 C 238.636719 217.351562 238.386719 217.65625 238.105469 217.9375 C 237.824219 218.21875 237.519531 218.472656 237.1875 218.691406 C 236.855469 218.914062 236.507812 219.101562 236.140625 219.253906 C 235.773438 219.40625 235.394531 219.519531 235.003906 219.597656 C 234.613281 219.675781 234.222656 219.714844 233.824219 219.714844 L 133.175781 219.714844 C 132.777344 219.714844 132.382812 219.675781 131.992188 219.597656 C 131.601562 219.519531 131.222656 219.40625 130.855469 219.253906 C 130.488281 219.101562 130.140625 218.914062 129.808594 218.691406 C 129.480469 218.472656 129.171875 218.21875 128.890625 217.9375 C 128.609375 217.65625 128.359375 217.351562 128.140625 217.019531 C 127.917969 216.691406 127.730469 216.339844 127.578125 215.972656 C 127.425781 215.605469 127.3125 215.226562 127.234375 214.839844 C 127.15625 214.449219 127.117188 214.054688 127.117188 213.65625 L 127.117188 113.015625 C 127.117188 112.617188 127.15625 112.222656 127.234375 111.832031 C 127.3125 111.441406 127.425781 111.0625 127.578125 110.695312 C 127.730469 110.328125 127.917969 109.980469 128.140625 109.648438 C 128.359375 109.320312 128.609375 109.011719 128.890625 108.730469 C 129.171875 108.449219 129.480469 108.199219 129.808594 107.980469 C 130.140625 107.757812 130.488281 107.570312 130.855469 107.417969 C 131.222656 107.265625 131.601562 107.152344 131.992188 107.074219 C 132.382812 106.996094 132.777344 106.957031 133.175781 106.957031 L 233.824219 106.957031 C 234.222656 106.957031 234.613281 106.996094 235.003906 107.074219 C 235.394531 107.152344 235.773438 107.265625 236.140625 107.417969 C 236.507812 107.570312 236.855469 107.757812 237.1875 107.980469 C 237.519531 108.199219 237.824219 108.449219 238.105469 108.730469 C 238.386719 109.011719 238.636719 109.320312 238.859375 109.648438 C 239.078125 109.980469 239.265625 110.328125 239.417969 110.695312 C 239.570312 111.0625 239.6875 111.441406 239.765625 111.832031 C 239.84375 112.222656 239.882812 112.617188 239.882812 113.015625 Z M 347.050781 175.683594 C 346.660156 175.675781 346.269531 175.628906 345.886719 175.546875 C 345.503906 175.460938 345.132812 175.34375 344.769531 175.1875 C 344.410156 175.03125 344.070312 174.84375 343.746094 174.621094 C 343.421875 174.398438 343.121094 174.148438 342.847656 173.867188 C 342.570312 173.585938 342.328125 173.28125 342.109375 172.953125 C 341.894531 172.625 341.714844 172.28125 341.566406 171.917969 C 341.417969 171.554688 341.304688 171.179688 341.230469 170.792969 C 341.152344 170.40625 341.113281 170.019531 341.113281 169.625 C 341.113281 169.234375 341.152344 168.84375 341.230469 168.460938 C 341.304688 168.074219 341.417969 167.699219 341.566406 167.335938 C 341.714844 166.972656 341.894531 166.625 342.109375 166.296875 C 342.328125 165.972656 342.574219 165.667969 342.847656 165.386719 C 343.121094 165.105469 343.421875 164.855469 343.746094 164.632812 C 344.070312 164.410156 344.410156 164.222656 344.773438 164.066406 C 345.132812 163.910156 345.503906 163.789062 345.886719 163.707031 C 346.273438 163.625 346.660156 163.578125 347.050781 163.570312 C 347.445312 163.578125 347.832031 163.625 348.214844 163.707031 C 348.601562 163.792969 348.972656 163.910156 349.332031 164.066406 C 349.695312 164.222656 350.035156 164.410156 350.359375 164.632812 C 350.683594 164.855469 350.980469 165.105469 351.257812 165.386719 C 351.53125 165.667969 351.777344 165.972656 351.992188 166.300781 C 352.207031 166.628906 352.390625 166.972656 352.539062 167.335938 C 352.6875 167.699219 352.800781 168.074219 352.875 168.460938 C 352.949219 168.84375 352.988281 169.234375 352.988281 169.625 C 352.988281 170.019531 352.949219 170.410156 352.875 170.792969 C 352.800781 171.179688 352.6875 171.554688 352.539062 171.917969 C 352.390625 172.28125 352.207031 172.625 351.992188 172.953125 C 351.777344 173.28125 351.53125 173.585938 351.257812 173.867188 C 350.980469 174.148438 350.683594 174.398438 350.359375 174.621094 C 350.035156 174.84375 349.691406 175.03125 349.332031 175.1875 C 348.972656 175.34375 348.601562 175.460938 348.214844 175.546875 C 347.832031 175.628906 347.445312 175.675781 347.050781 175.683594 Z M 347.050781 175.683594 " fill-opacity="1" fill-rule="nonzero"/></g><path fill="#ad46ff" d="M 318.628906 21.078125 C 302.199219 8.757812 287 22.308594 245.496094 53.8125 C 203.992188 85.316406 173.195312 148.59375 173.195312 148.59375 C 172.5625 149.789062 172.035156 150.96875 171.582031 152.074219 C 169.699219 143.46875 167.164062 138.195312 164.371094 138.195312 C 161.582031 138.195312 159.046875 143.46875 157.164062 152.074219 C 156.726562 150.949219 156.203125 149.789062 155.550781 148.59375 C 155.550781 148.59375 124.734375 85.316406 83.230469 53.8125 C 41.726562 22.308594 26.546875 8.757812 10.113281 21.078125 C -2.238281 30.351562 0.496094 45.585938 5.914062 57.996094 C 12.652344 73.449219 25.316406 85.296875 30.078125 101.890625 C 34.570312 117.542969 32.214844 134.445312 36.019531 150.261719 C 37.363281 155.804688 39.609375 161.402344 43.972656 165.0625 C 48.121094 168.539062 53.628906 169.84375 58.972656 170.769531 C 69.15625 172.527344 79.714844 173.558594 90.242188 173.738281 C 88.992188 174.046875 87.742188 174.390625 86.511719 174.753906 C 71.835938 179.046875 58.015625 187.21875 50.097656 200.679688 C 43.015625 212.742188 40.714844 227.960938 43.160156 241.65625 C 45.714844 255.988281 55.277344 267.183594 62.6875 279.265625 C 66.601562 285.625 70.132812 292.5625 76.21875 296.910156 C 89.714844 306.546875 110.441406 302.5625 122.070312 291.875 C 128.738281 285.75 132.996094 277.652344 136.78125 269.574219 C 140.515625 261.65625 144.445312 253.8125 147.886719 245.769531 C 150.984375 238.523438 153.972656 231.203125 156.746094 223.832031 C 158.667969 233.59375 161.367188 239.699219 164.371094 239.699219 C 167.378906 239.699219 170.078125 233.613281 172 223.832031 C 174.769531 231.222656 177.761719 238.523438 180.859375 245.769531 C 184.300781 253.8125 188.25 261.65625 191.964844 269.574219 C 195.769531 277.652344 200.023438 285.769531 206.671875 291.875 C 218.320312 302.542969 239.027344 306.53125 252.523438 296.910156 C 258.59375 292.582031 262.144531 285.625 266.058594 279.265625 C 273.46875 267.183594 283.03125 255.988281 285.585938 241.65625 C 288.03125 227.941406 285.730469 212.726562 278.648438 200.679688 C 270.730469 187.21875 256.925781 179.046875 242.234375 174.753906 C 241.003906 174.390625 239.753906 174.046875 238.503906 173.738281 C 249.027344 173.558594 259.589844 172.527344 269.773438 170.769531 C 275.097656 169.84375 280.621094 168.539062 284.773438 165.0625 C 289.136719 161.402344 291.382812 155.804688 292.722656 150.261719 C 296.527344 134.445312 294.191406 117.542969 298.667969 101.890625 C 303.429688 85.296875 316.09375 73.449219 322.832031 57.996094 C 328.25 45.585938 331.003906 30.351562 318.628906 21.078125 Z M 318.628906 21.078125 " fill-opacity="1" fill-rule="nonzero"/></g></g></svg>